<?xml version="1.0" encoding="utf-8"?>
<!-- Generator: Adobe Illustrator 26.3.1, SVG Export Plug-In . SVG Version: 6.00 Build 0)  -->
<svg version="1.1" id="Ebene_1" xmlns="http://www.w3.org/2000/svg" xmlns:xlink="http://www.w3.org/1999/xlink" x="0px" y="0px"
	 viewBox="0 0 127 126" style="enable-background:new 0 0 127 126;" xml:space="preserve">
<style type="text/css">
	.st0{fill:url(#SVGID_1_);}
	.st1{fill:#F7DECE;}
	.st2{fill:#C1694F;}
	.st3{fill:#662113;}
	.st4{fill:#006C37;}
	.st5{fill:#FF9494;}
</style>
<linearGradient id="SVGID_1_" gradientUnits="userSpaceOnUse" x1="63.5668" y1="128" x2="63.5668" y2="2.335" gradientTransform="matrix(1 0 0 -1 0 128)">
	<stop  offset="0" style="stop-color:#40C47E"/>
	<stop  offset="1" style="stop-color:#40C47E;stop-opacity:0.6"/>
</linearGradient>
<circle class="st0" cx="63.6" cy="62.8" r="62.8"/>
<path class="st1" d="M78.7,46.3c-11.3,0-35.8-2.9-35.8-2.9s-4.9,5.4-7.7,8.2c-5.3,5.3-4.8,11.9-5.5,20.3
	c0.9,23.1,15.7,41.5,33.9,41.5c18.1,0,32.8-18.2,33.8-41.1C96.4,62,89.5,46.3,78.7,46.3z"/>
<path class="st2" d="M63.6,102.1c-6.6,0-10.1-3.3-10.5-3.7c-0.5-0.5-0.8-1.2-0.8-2s0.3-1.5,0.8-2c0.5-0.5,1.2-0.8,2-0.8
	c0.7,0,1.5,0.3,2,0.8c0.1,0.1,2.3,2,6.5,2c4.3,0,6.4-2,6.5-2c0.5-0.5,1.3-0.8,2-0.8c0.7,0,1.5,0.3,2,0.9c0.5,0.5,0.8,1.2,0.8,2
	c0,0.7-0.3,1.4-0.8,2C73.7,98.8,70.2,102.1,63.6,102.1z M66.4,87.9h-5.7c-0.8,0-1.5-0.3-2-0.8c-0.5-0.5-0.8-1.2-0.8-2s0.3-1.5,0.8-2
	c0.5-0.5,1.2-0.8,2-0.8h5.7c0.8,0,1.5,0.3,2,0.8c0.5,0.5,0.8,1.2,0.8,2s-0.3,1.5-0.8,2C67.9,87.6,67.2,87.9,66.4,87.9z"/>
<path class="st3" d="M49.4,76.6c-0.8,0-1.5-0.3-2-0.8c-0.5-0.5-0.8-1.2-0.8-2v-5.7c0-0.8,0.3-1.5,0.8-2c0.5-0.5,1.2-0.8,2-0.8
	s1.5,0.3,2,0.8c0.5,0.5,0.8,1.2,0.8,2v5.7c0,0.8-0.3,1.5-0.8,2C50.9,76.3,50.2,76.6,49.4,76.6z M77.7,76.6c-0.8,0-1.5-0.3-2-0.8
	c-0.5-0.5-0.8-1.2-0.8-2v-5.7c0-0.8,0.3-1.5,0.8-2c0.5-0.5,1.2-0.8,2-0.8s1.5,0.3,2,0.8c0.5,0.5,0.8,1.2,0.8,2v5.7
	c0,0.8-0.3,1.5-0.8,2C79.2,76.3,78.5,76.6,77.7,76.6z"/>
<path class="st4" d="M63.6,23.1c23.2,0,37.7,17.1,37.7,31.4c0,14.3-2.9,20-5.8,14.3c-2.9-5.7-5.8-14.2-5.8-14.2s-9.8,6.4-17.5-2.9
	c0,0,3,17.1-14.4,0c0,0,2.9,11.4-14.5-2.9c0,0-8.7,5.7-11.6,20c-0.8,4-5.8,0-5.8-14.3C25.9,40.2,37.5,23.1,63.6,23.1z"/>
<circle class="st5" cx="79.7" cy="87.7" r="1.1"/>
<circle class="st5" cx="81.3" cy="90.4" r="0.5"/>
<circle class="st5" cx="79.2" cy="93.7" r="1.6"/>
<circle class="st5" cx="84" cy="94.2" r="1.1"/>
<circle class="st5" cx="86.7" cy="90.4" r="1.6"/>
</svg>
