<?xml version="1.0" encoding="utf-8"?>
<!-- Generator: Adobe Illustrator 26.3.1, SVG Export Plug-In . SVG Version: 6.00 Build 0)  -->
<svg version="1.1" id="Ebene_1" xmlns="http://www.w3.org/2000/svg" xmlns:xlink="http://www.w3.org/1999/xlink" x="0px" y="0px"
	 viewBox="0 0 127 126" style="enable-background:new 0 0 127 126;" xml:space="preserve">
<style type="text/css">
	.st0{fill:url(#SVGID_1_);}
	.st1{fill:#F7DECE;}
	.st2{fill:#C1694F;}
	.st3{fill:#FFC39E;}
	.st4{fill:#6A4700;}
	.st5{fill:#FF9494;}
	.st6{fill:#FFFFFF;}
	.st7{fill:#FF9D8E;}
	.st8{fill:#910100;}
	.st9{fill:#36172B;}
</style>
<linearGradient id="SVGID_1_" gradientUnits="userSpaceOnUse" x1="63.6217" y1="402.2391" x2="63.6217" y2="527.8391" gradientTransform="matrix(1 0 0 1 0 -402)">
	<stop  offset="0" style="stop-color:#40C47E"/>
	<stop  offset="1" style="stop-color:#40C47E;stop-opacity:0.3"/>
</linearGradient>
<circle class="st0" cx="63.6" cy="63" r="62.8"/>
<path class="st1" d="M78.7,46.3c-11.3,0-35.8-2.9-35.8-2.9s-4.9,5.4-7.7,8.2c-5.3,5.3-4.8,11.9-5.5,20.3
	c0.9,23.1,15.7,41.5,33.9,41.5c18.1,0,32.8-18.2,33.8-41.1C96.4,62,89.5,46.3,78.7,46.3z"/>
<path class="st2" d="M62.6,100.1c-6.6,0-10.1-3.3-10.5-3.7c-0.5-0.5-0.8-1.2-0.8-2s0.3-1.5,0.8-2s1.2-0.8,2-0.8c0.7,0,1.5,0.3,2,0.8
	c0.1,0.1,2.3,2,6.5,2c4.3,0,6.4-2,6.5-2c0.5-0.5,1.3-0.8,2-0.8s1.5,0.3,2,0.9c0.5,0.5,0.8,1.2,0.8,2c0,0.7-0.3,1.4-0.8,2
	C72.7,96.8,69.2,100.1,62.6,100.1z"/>
<path class="st3" d="M60.1,74.7c0,0-0.7,2.1-1,3.6c0,0-2.5,0.9-1.9,2.9c0.6,2,2.7,2.1,2.7,2.1s1.4,1.2,2.8,1.3
	c1.4,0.1,2.4-1.2,2.4-1.2s2.4,0.1,3-1.8c0.8-2.7-1.3-3.3-1.3-3.3l-1.5-4.2c0,0-0.1-1.6-1.3-2.4C64,71.8,61.1,70.2,60.1,74.7z"/>
<path class="st4" d="M64,21.5c23.2,0,35.4,21.4,35.2,35.7c-0.2,13.9-0.8,12.7-3.7,7s-5.6-6.8-5.6-6.8s-4.2,4.8-11.9-4.5
	c0,0,7,16.7-10.4-0.4c0,0-2.8,14.7-20.2,0.4c0,0-11.8-6.5-14.7,7.8c-0.8,4-2.5,19.4-5.1-3.5C27.8,42.8,37.9,21.5,64,21.5z"/>
<circle class="st5" cx="41.6" cy="81.7" r="1.3"/>
<circle class="st5" cx="43.5" cy="84.9" r="0.6"/>
<circle class="st5" cx="40" cy="87.1" r="1.9"/>
<circle class="st5" cx="46.8" cy="89.5" r="1.3"/>
<circle class="st5" cx="50" cy="84.9" r="1.9"/>
<g>
	<path class="st6" d="M38.7,68.9c0,0,2.7-5.3,7.9-5.7c5.3-0.3,8.2,6,8.2,6S46.8,78.3,38.7,68.9z"/>
	<path class="st7" d="M40.6,66.3c-1.3,1.3-1.9,2.6-1.9,2.6c0.6,0.7,1.3,1.4,1.9,1.9C40.1,69.1,40.2,67.5,40.6,66.3z"/>
	<path class="st7" d="M52.6,71.2c1.4-1,2.2-1.9,2.2-1.9s-0.6-1.3-1.7-2.7C53.4,67.7,53.6,69.3,52.6,71.2z"/>
	<path class="st8" d="M45.6,64.7c4.4-1.2,8.1,6.1,2,7.6C41.3,73.9,41.2,65.9,45.6,64.7z"/>
	<path class="st9" d="M46.9,66.4c2.4,0.1,3.3,4-0.5,3.9C43.2,70.2,44.5,66.4,46.9,66.4z"/>
</g>
<path class="st6" d="M43.7,66.8c1,0.4,0.4,1.3-0.7,1C41.9,67.5,42.7,66.4,43.7,66.8z"/>
<g>
	<path class="st6" d="M70.8,69.3c0,0,2.7-5.3,7.9-5.7s8.2,6,8.2,6S78.9,78.6,70.8,69.3z"/>
	<path class="st7" d="M72.7,66.7c-1.3,1.3-1.9,2.6-1.9,2.6c0.6,0.7,1.3,1.4,1.9,1.9C72.1,69.4,72.3,67.8,72.7,66.7z"/>
	<path class="st7" d="M84.6,71.5c1.4-1,2.2-1.9,2.2-1.9s-0.6-1.3-1.7-2.7C85.5,68,85.7,69.7,84.6,71.5z"/>
	<path class="st8" d="M77.7,65c4.4-1.2,8.1,6.1,2,7.6C73.4,74.2,73.2,66.2,77.7,65z"/>
	<path class="st9" d="M79,66.8c2.4,0.1,3.3,4-0.5,3.9C75.2,70.6,76.6,66.7,79,66.8z"/>
</g>
<path class="st6" d="M81.3,67.1c1,0.4,0.4,1.3-0.7,1C79.5,67.8,80.3,66.7,81.3,67.1z"/>
</svg>
