<?xml version="1.0" encoding="utf-8"?>
<!-- Generator: Adobe Illustrator 26.3.1, SVG Export Plug-In . SVG Version: 6.00 Build 0)  -->
<svg version="1.1" id="Ebene_1" xmlns="http://www.w3.org/2000/svg" xmlns:xlink="http://www.w3.org/1999/xlink" x="0px" y="0px"
	 viewBox="0 0 126 126" style="enable-background:new 0 0 126 126;" xml:space="preserve">
<style type="text/css">
	.st0{fill:url(#SVGID_1_);}
	.st1{fill:#F7DECE;}
	.st2{fill:#FFFFFF;filter:url(#Adobe_OpacityMaskFilter);}
	.st3{mask:url(#mask0_4741_2378_00000085964003788097811590000012420682055903321764_);}
	.st4{fill:#006C37;}
</style>
<linearGradient id="SVGID_1_" gradientUnits="userSpaceOnUse" x1="63.1684" y1="2.335" x2="63.1684" y2="128" gradientTransform="matrix(1 0 0 -1 0 128)">
	<stop  offset="0" style="stop-color:#40C47E;stop-opacity:0.6"/>
	<stop  offset="1" style="stop-color:#40C47E"/>
</linearGradient>
<circle class="st0" cx="63.2" cy="62.8" r="62.8"/>
<path class="st1" d="M64.6,87.6c0-0.8-0.3-1.5-0.9-2c-0.5-0.3-0.9-0.7-1.2-1.1c-0.2-0.2-0.3-0.5-0.5-0.7c-0.1-0.3-0.3-0.6-0.4-0.9
	c-0.1-0.3-0.2-0.7-0.2-1c-0.1-0.4-0.1-0.7-0.1-1.1c0-0.4,0-0.8,0-1.1c0-0.3,0-0.6,0-0.9v-0.2v-1.5v-0.6c0,0,0-8.1,0-10.9
	c0-1.3-0.4-2.6-1.6-3.8c-2.6-2.6-6.7-1.6-6.9-1.7l-9.2,2.2c2.4,3.2,5.7,5.8,9.7,7.3v3.4c-13.7,3.9-23.6,15.7-23.6,32.4h13h9v-2
	c0-1,0.1-2,0.2-2.8c0.1-0.9,0.3-1.7,0.5-2.4c0.2-0.5,0.3-0.9,0.6-1.4c0.3-0.6,0.7-1.1,1.1-1.5c0.2-0.3,2-2.3,4.6-2.3
	C62.9,93.2,64.6,91,64.6,87.6z"/>
<path class="st1" d="M71.9,72.7v-5.1c3.9-2.4,7.6-9.8,7.6-18.8v-5.8C79,31.4,69.1,22.5,57.4,23c-11.2,0.5-20,9.8-20.1,20.8l-4.6,6.4
	c-0.4,0.5-0.6,1.1-0.3,1.6c0.3,0.6,1,0.7,1.5,0.8l3.8,0.6l0.4,3.6c0,0,14.8,0.1,17.2,0.1c10.1,0,9.5,2.7,9.5,8.7
	c0,2.8,0,10.4,0,10.4v0.3c0,0.3,0,0.6,0,0.9c0,0.4,0,0.7,0,1c0,0.6,0.6,1.3,0.7,1.5c0.1,0.1,0.1,0.1,0.2,0.2
	c0.1,0.1,0.2,0.1,0.3,0.2c0.2,0.1,0.3,0.2,0.6,0.2c0.3,0.1,0.6,0.2,1,0.2c0.3,0,0.7,0.1,1.1,0.1c0.7,0,1.6,0,2.4,0.2
	c5.6,1.3,9.5,10,3.9,16.7c-5.6,6.8-13.7,4.4-17,2.5c-0.8-0.5-2.2-1.2-2.5-0.2c-0.1,0.4-0.2,0.9-0.2,1.5c-0.1,0.6-0.1,1.3-0.1,2.1v2
	h26.1h15.5C96.9,88.2,86.3,76.1,71.9,72.7z"/>
<defs>
	<filter id="Adobe_OpacityMaskFilter" filterUnits="userSpaceOnUse" x="29.7" y="72.6" width="67.3" height="33.6">
		<feColorMatrix  type="matrix" values="1 0 0 0 0  0 1 0 0 0  0 0 1 0 0  0 0 0 1 0"/>
	</filter>
</defs>
<mask maskUnits="userSpaceOnUse" x="29.7" y="72.6" width="67.3" height="33.6" id="mask0_4741_2378_00000085964003788097811590000012420682055903321764_">
	<path class="st2" d="M64.6,87.6c0-0.8-0.3-1.5-0.9-2c-0.5-0.3-0.9-0.7-1.2-1.1c-0.2-0.2-0.3-0.5-0.5-0.7c-0.1-0.3-0.3-0.6-0.4-0.9
		c-0.1-0.3-0.2-0.7-0.2-1c-0.1-0.4-0.1-0.7-0.1-1.1c0-0.4,0-0.8,0-1.1c0-0.3,0-0.6,0-0.9v-0.2v-1.5v-0.6c0,0,0-8.1,0-10.9
		c0-1.3-0.4-2.6-1.6-3.8c-2.6-2.6-6.7-1.6-6.9-1.7l-9.2,2.2c2.4,3.2,5.7,5.8,9.7,7.3v3.4c-13.7,3.9-23.6,15.7-23.6,32.4h13h9v-2
		c0-1,0.1-2,0.2-2.8c0.1-0.9,0.3-1.7,0.5-2.4c0.2-0.5,0.4-0.9,0.6-1.4c0.3-0.6,0.7-1.1,1.1-1.5c0.2-0.3,2-2.3,4.6-2.3
		C62.9,93.2,64.6,91,64.6,87.6z"/>
	<path class="st1" d="M71.9,72.7v-5.1c3.9-2.4,7.6-9.8,7.6-18.8v-5.8C79,31.4,69.1,22.5,57.4,23c-11.2,0.5-20,9.8-20.1,20.8
		l-4.6,6.4c-0.4,0.5-0.6,1.1-0.3,1.6c0.3,0.6,1,0.7,1.5,0.8l3.8,0.6l0.4,3.6c0,0,14.8,0.1,17.2,0.1c10.1,0,9.5,2.7,9.5,8.7
		c0,2.8,0,10.4,0,10.4v0.3c0,0.3,0,0.6,0,0.9c0,0.4,0,0.7,0,1c0,0.6,0.6,1.3,0.7,1.5c0.1,0.1,0.1,0.1,0.2,0.2
		c0.1,0.1,0.2,0.1,0.3,0.2c0.2,0.1,0.3,0.2,0.6,0.2c0.3,0.1,0.6,0.2,1,0.2c0.3,0,0.7,0.1,1.1,0.1c0.7,0,1.6,0,2.4,0.2
		c5.6,1.3,9.5,10,3.9,16.7c-5.6,6.8-13.7,4.4-17,2.5c-0.8-0.5-2.2-1.2-2.5-0.2c-0.1,0.4-0.2,0.9-0.2,1.5c-0.1,0.6-0.1,1.3-0.1,2.1v2
		h26.1h15.5C96.9,88.2,86.3,76.1,71.9,72.7z"/>
</mask>
<g class="st3">
	<rect x="29.7" y="72.6" class="st4" width="67.3" height="33.6"/>
</g>
</svg>
