<?xml version="1.0" encoding="utf-8"?>
<!-- Generator: Adobe Illustrator 26.3.1, SVG Export Plug-In . SVG Version: 6.00 Build 0)  -->
<svg version="1.1" id="Ebene_1" xmlns="http://www.w3.org/2000/svg" xmlns:xlink="http://www.w3.org/1999/xlink" x="0px" y="0px"
	 viewBox="0 0 126 126" style="enable-background:new 0 0 126 126;" xml:space="preserve">
<style type="text/css">
	.st0{fill:url(#SVGID_1_);}
	.st1{fill:#F7DECE;}
	.st2{fill:#6A4700;}
</style>
<linearGradient id="SVGID_1_" gradientUnits="userSpaceOnUse" x1="63.2" y1="402" x2="63.2" y2="527.6" gradientTransform="matrix(1 0 0 1 0 -402)">
	<stop  offset="0" style="stop-color:#8CB45F"/>
	<stop  offset="0.2245" style="stop-color:#88B561;stop-opacity:0.8428"/>
	<stop  offset="0.4572" style="stop-color:#7BB766;stop-opacity:0.68"/>
	<stop  offset="0.6935" style="stop-color:#67BC6E;stop-opacity:0.5145"/>
	<stop  offset="0.931" style="stop-color:#4AC27A;stop-opacity:0.3483"/>
	<stop  offset="1" style="stop-color:#40C47E;stop-opacity:0.3"/>
</linearGradient>
<circle class="st0" cx="63.2" cy="62.8" r="62.8"/>
<path class="st1" d="M64.6,87.6c0-0.8-0.3-1.5-0.9-2c-0.5-0.3-0.9-0.7-1.2-1.1c-0.2-0.2-0.3-0.5-0.5-0.7c-0.1-0.3-0.3-0.6-0.4-0.9
	c-0.1-0.3-0.2-0.7-0.2-1c-0.1-0.4-0.1-0.7-0.1-1.1s0-0.8,0-1.1c0-0.3,0-0.6,0-0.9v-0.2v-1.5v-0.6c0,0,0-8.1,0-10.9
	c0-1.3-0.4-2.6-1.6-3.8c-2.6-2.6-6.7-1.6-6.9-1.7l-9.2,2.2c2.4,3.2,5.7,5.8,9.7,7.3V73c-13.7,3.9-23.6,15.7-23.6,32.4h13h9v-2
	c0-1,0.1-2,0.2-2.8c0.1-0.9,0.3-1.7,0.5-2.4c0.2-0.5,0.3-0.9,0.6-1.4c0.3-0.6,0.7-1.1,1.1-1.5c0.2-0.3,2-2.3,4.6-2.3
	C62.9,93.2,64.6,91,64.6,87.6z"/>
<path class="st1" d="M71.9,72.7v-5.1c3.9-2.4,7.6-9.8,7.6-18.8V43C79,31.4,69.1,22.5,57.4,23c-11.2,0.5-20,9.8-20.1,20.8l-4.6,6.4
	c-0.4,0.5-0.6,1.1-0.3,1.6c0.3,0.6,1,0.7,1.5,0.8l3.8,0.6l0.4,3.6c0,0,14.8,0.1,17.2,0.1c10.1,0,9.5,13.5,9.5,16c0,1.8,0,3.1,0,3.1
	v0.3c0,0.3,0,0.6,0,0.9c0,0.4,0,0.7,0,1c0,0.6,0.6,1.3,0.7,1.5c0.1,0.1,0.1,0.1,0.2,0.2s0.2,0.1,0.3,0.2c0.2,0.1,0.3,0.2,0.6,0.2
	c0.3,0.1,0.6,0.2,1,0.2c0.3,0,0.7,0.1,1.1,0.1c0.7,0,1.6,0,2.4,0.2c5.6,1.3,9.5,10,3.9,16.7c-5.6,6.8-13.7,4.4-17,2.5
	c-0.8-0.5-2.2-1.2-2.5-0.2c-0.1,0.4-0.2,0.9-0.2,1.5c-0.1,0.6-0.1,1.3-0.1,2.1v2h26.1h15.5C96.9,88.2,86.3,76.1,71.9,72.7z"/>
<line class="st1" x1="64.8" y1="70.4" x2="71.9" y2="72.7"/>
<path class="st2" d="M38.1,33.6c0,1.1,0.8,5.5,0.8,5.5s4.1-5.5,6.1-5.5c1.1,0,3.5,2.7,3.5,2.7s1.8,1.6,2.5,1.6
	c1.8-0.1,4.1-3.8,5.9-4.3c1.3-0.4,4,4.4,5.3,4.9c1.1,0.4,3-2,4.1-1.8c1.7,0.4,5.4,0.3,7,1c1,0.4,3.3,2.7,3.3,2.7s1.9,2.8,2.8,2.5
	c1.4-0.4,1-4.2,0.9-5.7c-0.1-2.3-1.2-6.7-2.2-8.8c-0.7-1.5-2.5-4.5-3.9-5.5c-1.8-1.3-6.2-2.2-8.4-2.5c-1.9-0.3-5.7-0.8-7.6-0.8
	c-2.1,0-6.4,0.4-8.4,1c-1.6,0.5-4.8,2.1-6.1,2.7c-1.4,0.7-3.4,3.2-4.3,4.5C38.7,29.2,38.2,32.2,38.1,33.6z"/>
</svg>
