<?xml version="1.0" encoding="utf-8"?>
<!-- Generator: Adobe Illustrator 26.3.1, SVG Export Plug-In . SVG Version: 6.00 Build 0)  -->
<svg version="1.1" id="Ebene_1" xmlns="http://www.w3.org/2000/svg" xmlns:xlink="http://www.w3.org/1999/xlink" x="0px" y="0px"
	 viewBox="0 0 126 126" style="enable-background:new 0 0 126 126;" xml:space="preserve">
<style type="text/css">
	.st0{fill:url(#SVGID_1_);}
	.st1{fill:#F7DECE;}
	.st2{fill:#008537;}
	.st3{fill:#6A4700;}
</style>
<linearGradient id="SVGID_1_" gradientUnits="userSpaceOnUse" x1="62.8" y1="402" x2="62.8" y2="527.6" gradientTransform="matrix(1 0 0 1 0 -402)">
	<stop  offset="0" style="stop-color:#8CB45F"/>
	<stop  offset="8.153758e-03" style="stop-color:#88B561;stop-opacity:0.9997"/>
	<stop  offset="1.660057e-02" style="stop-color:#7BB766;stop-opacity:0.9995"/>
	<stop  offset="2.518386e-02" style="stop-color:#67BC6E;stop-opacity:0.9992"/>
	<stop  offset="3.380824e-02" style="stop-color:#4AC27A;stop-opacity:0.999"/>
	<stop  offset="3.631285e-02" style="stop-color:#40C47E;stop-opacity:0.9989"/>
	<stop  offset="1" style="stop-color:#40C47E;stop-opacity:0.3"/>
</linearGradient>
<circle class="st0" cx="62.8" cy="62.8" r="62.8"/>
<path class="st1" d="M47.2,48.2h0.5c0.2,0,0.4-0.1,0.5-0.2l0,0c0.5,1.8,1.1,3.6,1.9,5.6c1,2.6,2,4.7,3.1,6.7V60
	c-0.1,1.4-0.2,2.8-0.4,4.2c-0.1,0.9-0.2,1.7-0.5,2.4v-0.1l-0.1,8c0,5.2,3.6,9.6,8.5,10.7h0.1c0.2-0.6,0.8-0.9,1.4-0.9h2.2
	c0.6,0,1.2,0.4,1.4,0.9l0,0c4.9-1.2,8.6-5.5,8.6-10.7c0,0-0.1-8-0.2-8c-0.2-0.7-0.4-1.5-0.5-2.3v-0.1c-0.1-1.4-0.2-2.8-0.4-4.2
	c1-1.7,1.9-3.8,2.8-6l0.1-0.4c0.8-2,1.4-3.8,1.9-5.6c0.2,0.1,0.3,0.2,0.5,0.2l0,0h0.5c0.7,0.1,1.2-0.5,1.3-1.3l0.6-7.4l0,0
	c0-0.6-0.5-1.1-1.1-1.2l0,0h-0.1c0.2-1.1,0.2-2.3,0.2-3.6c0-2.8-0.4-5.4-1.2-7.9v0.2c-2.2-4.9-6.6-8.4-11.9-9.4h-0.1
	c-1.1-0.2-2.5-0.4-3.8-0.4l0,0l0,0c-1.4,0-2.7,0.2-4,0.5h0.1c-5.4,1-9.8,4.6-12,9.3V27c-0.7,2.3-1.1,5-1.1,7.7
	c0,1.3,0.1,2.5,0.3,3.8v-0.1c-0.6,0.1-1.1,0.6-1.1,1.2l0,0l0.6,7.4C46,47.8,46.6,48.3,47.2,48.2L47.2,48.2z"/>
<path class="st2" d="M104.5,97.4c-0.3-11.7-1.4-14.3-2.1-16.1c-0.2-0.7-0.5-5.6-8.5-8.7c-4.9-1.9-11.3-2-16.7-4.3v6.3
	c0,6.8-4.9,12.5-11.3,13.7h-0.1c-0.1,0.7-0.7,1.2-1.4,1.2h-0.1v4.8c0,4.7,3.8,8.4,8.4,8.4c4.7,0,8.4-3.8,8.4-8.4V91
	c-2.3-0.4-4.1-2.3-4.1-4.8c0-2.7,2.2-4.8,4.8-4.8c2.7,0,4.8,2.2,4.8,4.8c0,2.1-1.4,3.9-3.2,4.5l0,0v3.5v0.2
	c0,5.9-4.8,10.7-10.7,10.7S62,100.3,62,94.4c0-0.1,0-0.1,0-0.2l0,0v-4.8c-0.7,0-1.2-0.6-1.3-1.2l0,0c-6.5-1.3-11.4-6.9-11.4-13.7
	v-6.4c-5.4,2.3-11.8,2.4-16.8,4.3c-8.1,3.2-8.2,8-8.5,8.7c-0.6,1.8-1.8,4.4-2.1,16.1c0,1.5,0,3.9,4.6,6c10.1,4,23.1,5.2,36,6.1H64
	c12.9-0.9,25.9-2.1,36-6.1C104.5,101.3,104.6,99,104.5,97.4z M48,92.6h-4.8v4.8h-3.4v-4.8H35v-3.4h4.8v-4.8h3.4v4.8H48V92.6z"/>
<path d="M84.6,86.2c0-1.4-1.2-2.6-2.6-2.6s-2.6,1.2-2.6,2.6s1.2,2.6,2.6,2.6C83.4,88.8,84.6,87.6,84.6,86.2z"/>
<path class="st3" d="M64.4,14.4c9,0.4,16.5,8.5,16.4,13.7c-0.1,5-0.1,6-1.4,3.9c-0.5-0.7-1.9-1.9-2.3-2.5c-0.7-0.8-1.9-1.1-2.8-0.6
	c-0.4,0.2-1,0.4-1.6,0.2c-0.7-0.2-1.4,0.2-2,0.7c-0.3,0.4-1.3,0.2-3.7-1.3c-0.9-0.6-2-0.4-2.8,0.3c-1.1,1-5.7-0.2-10.2-2.8
	c-0.5-0.3,1.2,1.4,0.7,1.5c-1.9,0.3-6.1,1.5-7.2,5.5c-1.4,0.9-1.4,3.1-2.6-5c0-0.1,0-0.3,0-0.4C45,22.4,52,13.9,64.4,14.4z"/>
</svg>
