<?xml version="1.0" encoding="utf-8"?>
<!-- Generator: Adobe Illustrator 26.3.1, SVG Export Plug-In . SVG Version: 6.00 Build 0)  -->
<svg version="1.1" id="Ebene_1" xmlns="http://www.w3.org/2000/svg" xmlns:xlink="http://www.w3.org/1999/xlink" x="0px" y="0px"
	 viewBox="0 0 127 126" style="enable-background:new 0 0 127 126;" xml:space="preserve">
<style type="text/css">
	.st0{fill:url(#SVGID_1_);}
	.st1{fill:url(#SVGID_00000129904527503860845570000017634645430877863314_);filter:url(#Adobe_OpacityMaskFilter);}
	.st2{mask:url(#mask0_4741_2340_00000090274932495869108060000015013484366960620973_);}
	.st3{fill:#006C37;}
	.st4{fill:#EEC2AD;}
	.st5{fill:#F7DECE;}
	.st6{fill:#E0AA94;}
	.st7{fill:#292F33;}
	.st8{fill:#BF6952;}
	.st9{fill:#662113;}
	.st10{fill:#DF1F32;}
</style>
<linearGradient id="SVGID_1_" gradientUnits="userSpaceOnUse" x1="63.6996" y1="128" x2="63.6996" y2="2.335" gradientTransform="matrix(1 0 0 -1 0 128)">
	<stop  offset="0" style="stop-color:#40C47E"/>
	<stop  offset="1" style="stop-color:#40C47E;stop-opacity:0.6"/>
</linearGradient>
<circle class="st0" cx="63.7" cy="62.8" r="62.8"/>
<defs>
	<filter id="Adobe_OpacityMaskFilter" filterUnits="userSpaceOnUse" x="40.1" y="26.1" width="62.7" height="104.6">
		<feColorMatrix  type="matrix" values="1 0 0 0 0  0 1 0 0 0  0 0 1 0 0  0 0 0 1 0"/>
	</filter>
</defs>
<mask maskUnits="userSpaceOnUse" x="40.1" y="26.1" width="62.7" height="104.6" id="mask0_4741_2340_00000090274932495869108060000015013484366960620973_">
	
		<linearGradient id="SVGID_00000160885819790451866890000017794751367405017504_" gradientUnits="userSpaceOnUse" x1="63.6996" y1="128" x2="63.6996" y2="2.335" gradientTransform="matrix(1 0 0 -1 0 128)">
		<stop  offset="0" style="stop-color:#AFC1DC"/>
		<stop  offset="1" style="stop-color:#E2E5ED"/>
	</linearGradient>
	
		<circle style="fill:url(#SVGID_00000160885819790451866890000017794751367405017504_);filter:url(#Adobe_OpacityMaskFilter);" cx="63.7" cy="62.8" r="62.8"/>
</mask>
<g class="st2">
	<path class="st3" d="M77.7,65.9h-13c-5.2,0-9.7,4.5-9.7,9.7v55.1h31.1v-26.1l1.3-5.1V75.6C87.4,70.4,82.9,65.9,77.7,65.9z"/>
	<path class="st3" d="M65.6,73.8c-3.5,0-6.8,1.4-9.3,3.8c-2.5,2.5-3.8,5.8-3.8,9.3c0,3.5,1.4,6.8,3.8,9.3c2.5,2.5,5.8,3.8,9.3,3.8
		V73.8z"/>
	<path class="st3" d="M65.7,76.7c-2.7,0-5.3,1.1-7.2,3c-1.9,1.9-3,4.5-3,7.2s1.1,5.3,3,7.2c1.9,1.9,4.5,3,7.2,3V76.7z"/>
	<path class="st3" d="M71.5,73.8c-3.5,0-6.8,1.4-9.3,3.8c-2.5,2.5-3.8,5.8-3.8,9.3c0,3.5,1.4,6.8,3.8,9.3c2.5,2.5,5.8,3.8,9.3,3.8
		V73.8z"/>
	<path class="st3" d="M71.5,76.7c-2.7,0-5.3,1.1-7.2,3c-1.9,1.9-3,4.5-3,7.2s1.1,5.3,3,7.2c1.9,1.9,4.5,3,7.2,3V76.7z"/>
	<path class="st3" d="M47.6,130.7h20.9V89.1c-1.3-0.2-2.7-0.4-4.1-0.4c-6.5,0-12.6,2.6-17.2,7.1c-4.6,4.6-7.1,10.8-7.1,17.2
		C40.1,120,43,126.3,47.6,130.7z"/>
	<path class="st3" d="M68,78.7v13.1c-1.2-0.2-2.4-0.3-3.5-0.3c-2.8,0-5.7,0.6-8.3,1.6c-2.6,1.1-5,2.7-7,4.7c-2,2-3.6,4.4-4.7,7
		c-1.1,2.6-1.6,5.4-1.6,8.3c0,3.4,0.8,6.8,2.4,9.9c1.6,3.1,3.9,5.7,6.7,7.7H83V70.4L68,78.7z"/>
	<path class="st3" d="M84.4,72.4l14.1,14.9l-12.5,13.2l0,8.9l-11.5,7.8L66.9,105l16.5-16.9l-5.7-5.6L84.4,72.4z"/>
	<path class="st3" d="M84.4,68.7l15.9,16.6c0,0,5.5,4.5,0,9.7c-3.3,3.2-24.1,17.2-24.1,17.2l-6.5-6.5l17.7-17.2l-9.7-9.7L84.4,68.7z
		"/>
	<path class="st4" d="M72.4,106c-3.3-1.6-6.4-1.3-9.4,0.4c-1.4,0.8-2,2.4,0.2,2.9C65.4,109.9,72.4,106,72.4,106z"/>
	<path class="st5" d="M76.9,111.6c0.4,5.1-6.5,10-11.7,9.3c-3.7-0.4-7-10.5-2.6-11.8c4-1.2,5-4.7,9.7-3.4
		C76.1,106.8,76.7,109.6,76.9,111.6z"/>
	<path class="st6" d="M73.4,113.6l-0.6-1.3c0,0-2.2,3.3-5.4,4.6c-2.4,1-4.4,1.1-5.4,0.9c0.4,0.9,0.5,1,1,1.5
		C66.3,119.5,71.5,117.7,73.4,113.6z M66.9,113.5c2.9-2,3.7-3.9,3.7-3.9l-0.9-1.2c0,0-3.3,5.2-9.3,4.9c0,0.7,0,0.9,0.2,1.6
		C61.5,115,64.6,115.1,66.9,113.5z"/>
	<path class="st7" d="M58.6,39.7c0.4,1,0.6,2,0.6,3c0,1-0.2,2.1-0.6,3c-0.4,1-1,1.8-1.7,2.6c-0.7,0.7-1.6,1.3-2.6,1.7
		c-1,0.4-2,0.6-3,0.6c-1,0-2.1-0.2-3-0.6c-1-0.4-1.8-1-2.6-1.7c-0.7-0.7-1.3-1.6-1.7-2.6c-0.4-1-0.6-2-0.6-3c0-1,0.2-2.1,0.6-3
		c0.4-1,1-1.8,1.7-2.6c0.7-0.7,1.6-1.3,2.6-1.7c1-0.4,2-0.6,3-0.6c1,0,2.1,0.2,3,0.6c1,0.4,1.8,1,2.6,1.7
		C57.6,37.9,58.2,38.8,58.6,39.7z"/>
	<path class="st5" d="M74.4,60.1c3.5-4.2,5.6-9.5,3.8-13.9l-3-7.2c-16.1,6.1-22.7-2.3-22.7-2.3s3.1,7.6-3.6,11.4l3.6,8.7
		c2.9,7.1,6.9,12.1,14,9.2l0.2,1c0.6,2.4,0.2,4.3,3.7,4.4c2.5,0.1,5.8-4.3,5.2-6.7L74.4,60.1z"/>
	<path class="st7" d="M93.1,41.5c2.4-6.4-3.4-11.3-8.3-11.8c-3-0.3-5.7,1.6-7,3.9c-6-10-14.9-7.7-20.6-5.7c-6,2.1-15,8.4-11.5,15.1
		c3.5,6.7,15.3,3.8,15.3,3.8l4.3,6.9c-1.1-5.9,2.8-7.2,4.6-5.9c1.9,1.4,0.6,5.7,1.5,7.4c0.9,1.7,3.9,4.1,3.9,4.1
		c1.8-2.4,7.7-10.4,5-20.2c1.1-0.4,2.8-0.1,4.2,0.6c3.5,1.8,0.7,10.8,5.6,13.6c4.6,2.7,7.4-1,7.4-1C92.5,52.4,90.8,47.6,93.1,41.5z"
		/>
	<path class="st8" d="M55,60.1l-0.9,0.4c-0.1,0-0.2,0.1-0.3,0.1c-0.1,0-0.2,0-0.3-0.1c-0.1,0-0.2-0.1-0.3-0.2
		c-0.1-0.1-0.1-0.2-0.2-0.3c0-0.1-0.1-0.2-0.1-0.3c0-0.1,0-0.2,0.1-0.3c0-0.1,0.1-0.2,0.2-0.3c0.1-0.1,0.2-0.1,0.3-0.2l0.9-0.4
		c0.1,0,0.2-0.1,0.3-0.1c0.1,0,0.2,0,0.3,0.1c0.1,0,0.2,0.1,0.3,0.2c0.1,0.1,0.1,0.2,0.2,0.3c0,0.1,0.1,0.2,0.1,0.3
		c0,0.1,0,0.2-0.1,0.3c0,0.1-0.1,0.2-0.2,0.3C55.2,60,55.1,60,55,60.1z"/>
	<path class="st9" d="M55.4,54c-0.4,0.2-0.8,0.2-1.2,0c-0.4-0.2-0.7-0.5-0.8-0.8l-0.6-1.4c-0.2-0.4-0.2-0.8,0-1.2s0.5-0.7,0.8-0.8
		c0.4-0.2,0.8-0.2,1.2,0c0.4,0.2,0.7,0.5,0.8,0.8l0.6,1.4c0.1,0.2,0.1,0.4,0.1,0.6c0,0.2,0,0.4-0.1,0.6c-0.1,0.2-0.2,0.4-0.3,0.5
		C55.8,53.8,55.6,53.9,55.4,54z"/>
	<path class="st10" d="M56.2,63.6c0.7,0.9,1.5,1.6,2.3,2.1c3.1-1.8,3.3-4.5,3.3-4.5l-5.5,2.3L56.2,63.6z"/>
</g>
</svg>
