<?xml version="1.0" encoding="utf-8"?>
<!-- Generator: Adobe Illustrator 26.3.1, SVG Export Plug-In . SVG Version: 6.00 Build 0)  -->
<svg version="1.1" id="Ebene_1" xmlns="http://www.w3.org/2000/svg" xmlns:xlink="http://www.w3.org/1999/xlink" x="0px" y="0px"
	 viewBox="0 0 127 126" style="enable-background:new 0 0 127 126;" xml:space="preserve">
<style type="text/css">
	.st0{fill:url(#SVGID_1_);}
	.st1{fill:url(#SVGID_00000023993589686792393760000014539966539699976104_);filter:url(#Adobe_OpacityMaskFilter);}
	.st2{mask:url(#mask0_4741_2340_00000101800606518857584240000013735867008577335203_);}
	.st3{fill:#008537;}
	.st4{fill:#005837;}
	.st5{fill:#EEC2AD;}
	.st6{fill:#F7DECE;}
	.st7{fill:#E0AA94;}
	.st8{fill:#6A3100;}
	.st9{fill:#BF6952;}
	.st10{fill:#662113;}
	.st11{fill:#DF1F32;}
</style>
<linearGradient id="SVGID_1_" gradientUnits="userSpaceOnUse" x1="63.562" y1="128.087" x2="63.562" y2="2.087" gradientTransform="matrix(1 0 0 -1 0 128)">
	<stop  offset="0" style="stop-color:#40C47E"/>
	<stop  offset="1" style="stop-color:#40C47E;stop-opacity:0.3"/>
</linearGradient>
<ellipse class="st0" cx="63.6" cy="62.9" rx="63.4" ry="63"/>
<defs>
	<filter id="Adobe_OpacityMaskFilter" filterUnits="userSpaceOnUse" x="39.7" y="26.1" width="63.3" height="105.7">
		<feColorMatrix  type="matrix" values="1 0 0 0 0  0 1 0 0 0  0 0 1 0 0  0 0 0 1 0"/>
	</filter>
</defs>
<mask maskUnits="userSpaceOnUse" x="39.7" y="26.1" width="63.3" height="105.7" id="mask0_4741_2340_00000101800606518857584240000013735867008577335203_">
	
		<linearGradient id="SVGID_00000010296628706154838790000018337814369334374299_" gradientUnits="userSpaceOnUse" x1="63.562" y1="128.3478" x2="63.562" y2="1.3448" gradientTransform="matrix(1 0 0 -1 0 128)">
		<stop  offset="0" style="stop-color:#AFC1DC"/>
		<stop  offset="1" style="stop-color:#E2E5ED"/>
	</linearGradient>
	
		<ellipse style="fill:url(#SVGID_00000010296628706154838790000018337814369334374299_);filter:url(#Adobe_OpacityMaskFilter);" cx="63.6" cy="63.2" rx="63.4" ry="63.5"/>
</mask>
<g class="st2">
	<path class="st3" d="M77.7,66.2H64.6c-5.3,0-9.8,4.5-9.8,9.8v55.7h31.3v-26.4l1.3-5.2V76.1C87.5,70.8,82.9,66.2,77.7,66.2z"/>
	<path class="st4" d="M65.5,74.3c-3.5,0-6.9,1.4-9.4,3.9c-2.5,2.5-3.9,5.9-3.9,9.4c0,3.5,1.4,6.9,3.9,9.4c2.5,2.5,5.9,3.9,9.4,3.9
		V74.3z"/>
	<path class="st3" d="M65.5,77.2c-2.7,0-5.4,1.1-7.3,3c-1.9,1.9-3,4.6-3,7.3s1.1,5.4,3,7.3c1.9,1.9,4.6,3,7.3,3V77.2z"/>
	<path class="st4" d="M71.4,74.3c-3.5,0-6.9,1.4-9.4,3.9c-2.5,2.5-3.9,5.9-3.9,9.4c0,3.5,1.4,6.9,3.9,9.4c2.5,2.5,5.9,3.9,9.4,3.9
		V74.3z"/>
	<path class="st3" d="M71.4,77.2c-2.7,0-5.4,1.1-7.3,3c-1.9,1.9-3,4.6-3,7.3s1.1,5.4,3,7.3c1.9,1.9,4.6,3,7.3,3V77.2z"/>
	<path class="st4" d="M47.3,131.7h21.1v-42c-1.4-0.2-2.7-0.4-4.1-0.4c-6.5,0-12.8,2.6-17.4,7.2c-4.6,4.6-7.2,10.9-7.2,17.4
		C39.7,121,42.6,127.3,47.3,131.7z"/>
	<path class="st3" d="M67.9,79.2v13.2c-1.2-0.2-2.4-0.3-3.6-0.3c-2.9,0-5.7,0.6-8.4,1.7c-2.6,1.1-5.1,2.7-7.1,4.7
		c-2,2-3.6,4.4-4.7,7.1c-1.1,2.7-1.7,5.5-1.7,8.4c0,3.5,0.8,6.9,2.4,10c1.6,3.1,3.9,5.8,6.7,7.8h31.5V70.8L67.9,79.2z"/>
	<path class="st4" d="M84.5,72.8l14.3,15.1l-12.6,13.3l0,9L74.5,118l-7.8-12.2l16.6-17.1L77.7,83L84.5,72.8z"/>
	<path class="st3" d="M84.5,69.1l16.1,16.8c0,0,5.6,4.5,0,9.8c-3.4,3.2-24.4,17.4-24.4,17.4l-6.5-6.6l17.8-17.4l-9.8-9.8L84.5,69.1z
		"/>
	<path class="st5" d="M72.4,106.8c-3.3-1.6-6.4-1.4-9.5,0.4c-1.5,0.9-2,2.4,0.2,3C65.3,110.7,72.4,106.8,72.4,106.8z"/>
	<path class="st6" d="M76.8,112.4c0.4,5.2-6.5,10.1-11.8,9.4c-3.8-0.5-7.1-10.6-2.6-11.9c4-1.2,5.1-4.8,9.8-3.4
		C76,107.5,76.7,110.4,76.8,112.4z"/>
	<path class="st7" d="M73.4,114.4l-0.6-1.3c0,0-2.3,3.4-5.4,4.7c-2.4,1-4.4,1.1-5.5,0.9c0.5,0.9,0.5,1,1.1,1.6
		C66.2,120.4,71.4,118.6,73.4,114.4z M66.8,114.3c2.9-2,3.8-3.9,3.8-3.9l-1-1.2c0,0-3.4,5.2-9.3,5c0,0.7,0,0.9,0.2,1.6
		C61.3,115.8,64.5,115.9,66.8,114.3z"/>
	<path class="st8" d="M58.4,39.8c0.4,1,0.6,2,0.6,3c0,1-0.2,2.1-0.6,3.1c-0.4,1-1,1.9-1.7,2.6c-0.7,0.7-1.6,1.3-2.6,1.7
		c-1,0.4-2,0.6-3,0.6c-1,0-2.1-0.2-3-0.6c-1-0.4-1.8-1-2.6-1.7c-0.7-0.7-1.3-1.6-1.7-2.6c-0.4-1-0.6-2-0.6-3c0-1,0.2-2.1,0.6-3.1
		c0.4-1,1-1.9,1.7-2.6c0.7-0.7,1.6-1.3,2.6-1.7c1-0.4,2-0.6,3-0.6s2.1,0.2,3,0.6c1,0.4,1.8,1,2.6,1.7C57.4,38,58,38.8,58.4,39.8z"/>
	<path class="st6" d="M74.3,60.4c3.5-4.2,5.7-9.6,3.8-14l-3-7.2c-16.2,6.1-22.9-2.3-22.9-2.3s3.2,7.7-3.6,11.6l3.6,8.7
		c3,7.1,7,12.3,14.1,9.3l0.2,1c0.6,2.4,0.2,4.4,3.7,4.5c2.5,0.1,5.8-4.3,5.2-6.7L74.3,60.4z"/>
	<path class="st8" d="M93.2,41.6c2.4-6.5-3.4-11.4-8.4-11.9c-3-0.3-5.7,1.6-7.1,3.9c-6-10.1-15.1-7.7-20.8-5.7
		c-6.1,2.1-15.1,8.5-11.6,15.2c3.6,6.8,15.4,3.9,15.4,3.9l4.3,6.9c-1.2-6,2.8-7.3,4.6-6c1.9,1.4,0.6,5.8,1.5,7.5
		c0.9,1.7,3.9,4.1,3.9,4.1c1.9-2.4,7.8-10.5,5-20.4c1.1-0.4,2.8-0.1,4.2,0.6c3.5,1.8,0.7,10.9,5.6,13.8c4.7,2.8,7.4-1,7.4-1
		C92.6,52.6,90.9,47.8,93.2,41.6z"/>
	<path class="st9" d="M54.8,60.4l-0.9,0.4c-0.1,0-0.2,0.1-0.3,0.1c-0.1,0-0.2,0-0.3-0.1c-0.1,0-0.2-0.1-0.3-0.2
		c-0.1-0.1-0.1-0.2-0.2-0.3c0-0.1-0.1-0.2-0.1-0.3c0-0.1,0-0.2,0.1-0.3c0-0.1,0.1-0.2,0.2-0.3c0.1-0.1,0.2-0.1,0.3-0.2l0.9-0.4
		c0.1,0,0.2-0.1,0.3-0.1c0.1,0,0.2,0,0.3,0.1S55,59,55,59.1c0.1,0.1,0.1,0.2,0.2,0.3c0,0.1,0.1,0.2,0.1,0.3c0,0.1,0,0.2-0.1,0.3
		c0,0.1-0.1,0.2-0.2,0.3C55,60.3,54.9,60.3,54.8,60.4z"/>
	<path class="st10" d="M55.2,54.3c-0.4,0.2-0.8,0.2-1.2,0c-0.4-0.2-0.7-0.5-0.8-0.8L52.6,52c-0.2-0.4-0.2-0.8,0-1.2
		c0.2-0.4,0.5-0.7,0.8-0.8c0.4-0.2,0.8-0.2,1.2,0c0.4,0.2,0.7,0.5,0.8,0.8l0.6,1.4c0.1,0.2,0.1,0.4,0.1,0.6s0,0.4-0.1,0.6
		c-0.1,0.2-0.2,0.4-0.3,0.5C55.6,54.1,55.4,54.2,55.2,54.3z"/>
	<path class="st11" d="M56,63.9c0.7,0.9,1.5,1.6,2.3,2.2c3.1-1.8,3.3-4.5,3.3-4.5l-5.5,2.3L56,63.9z"/>
</g>
</svg>
