<?xml version="1.0" encoding="utf-8"?>
<!-- Generator: Adobe Illustrator 26.3.1, SVG Export Plug-In . SVG Version: 6.00 Build 0)  -->
<svg version="1.1" id="Ebene_1" xmlns="http://www.w3.org/2000/svg" xmlns:xlink="http://www.w3.org/1999/xlink" x="0px" y="0px"
	 viewBox="0 0 127 126" style="enable-background:new 0 0 127 126;" xml:space="preserve">
<style type="text/css">
	.st0{fill:url(#SVGID_1_);}
	.st1{fill:#006C37;}
	.st2{fill:#BCCBE1;}
	.st3{fill:#F7DECE;}
	.st4{fill:#C0CDE2;}
</style>
<linearGradient id="SVGID_1_" gradientUnits="userSpaceOnUse" x1="63.3012" y1="128" x2="63.3012" y2="2.335" gradientTransform="matrix(1 0 0 -1 0 128)">
	<stop  offset="5.327789e-09" style="stop-color:#40C47E"/>
	<stop  offset="1" style="stop-color:#40C47E;stop-opacity:0.6"/>
</linearGradient>
<circle class="st0" cx="63.3" cy="62.8" r="62.8"/>
<circle class="st1" cx="66.3" cy="54.8" r="26.6"/>
<path class="st2" d="M72.9,57.5c-1.4,0-2.5-0.3-3.3-0.7c-1.3-0.6-2.2-1.5-2.7-2.5c-0.3-0.5-0.4-0.9-0.6-1.3c-0.1-0.4-0.2-0.8-0.2-1
	c0-0.4-0.3-0.7-0.7-0.7s-0.7,0.3-0.7,0.7c0,0.3,0,0.6,0.1,0.9c0.1,0.6,0.3,1.2,0.7,1.9c0.5,1,1.3,2,2.6,2.8c0.3,0.2,0.6,0.4,1,0.5
	c0.1,0.2,0.1,0.7,0.1,1.2c0,0.4,0,0.8-0.2,1.2c-0.1,0.4-0.3,0.9-0.6,1.3c-0.2,0.3-0.1,0.8,0.2,1c0.3,0.2,0.8,0.1,1-0.2
	c0.4-0.6,0.7-1.2,0.8-1.7c0.1-0.6,0.2-1.1,0.2-1.6c0-0.2,0-0.5,0-0.7c0.7,0.2,1.5,0.3,2.3,0.3c0.4,0,0.7-0.3,0.7-0.7
	C73.6,57.8,73.3,57.5,72.9,57.5z"/>
<path class="st2" d="M76.1,48.1c-0.4-0.2-0.8-0.1-1,0.3c-0.2,0.4-0.1,0.8,0.3,1c0.5,0.3,0.9,0.6,1.1,1c-0.9,0.3-1.7,0.4-2.4,0.4
	c-1,0-1.9-0.3-2.6-0.7c-0.7-0.4-1.3-1-1.7-1.6c-0.7-1-1.7-1.9-2.8-2.5c-1.1-0.6-2.4-1-3.7-1c-1.2,0-2.5,0.3-3.7,1
	c-0.5,0.3-1,0.6-1.3,1c-1.5,0.6-2.8,0.8-3.9,0.8c-1.6,0-2.8-0.4-3.5-0.8c-0.4-0.2-0.7-0.4-0.9-0.6c-0.1-0.1-0.2-0.1-0.2-0.2l0,0l0,0
	c-0.3-0.3-0.7-0.3-1,0c-0.3,0.3-0.3,0.7,0,1c0,0,0.5,0.6,1.5,1.1c0.4,0.2,0.9,0.4,1.5,0.6c-0.2,0.2-0.4,0.6-0.6,1
	c-0.5,0.8-1,1.9-1.2,3.2c-0.1,0.4,0.2,0.8,0.6,0.9c0.4,0.1,0.8-0.2,0.9-0.6c0.2-1.1,0.7-2.1,1.1-2.8c0.2-0.4,0.4-0.6,0.5-0.8
	c0.1-0.1,0.1-0.2,0.2-0.2c0,0,0,0,0,0l0,0l0,0c0.1-0.1,0.1-0.2,0.1-0.3c0.4,0,0.8,0.1,1.2,0.1c0.8,0,1.6-0.1,2.5-0.3
	c-0.5,1-0.6,2-0.6,2.9c0,0.9,0.2,1.8,0.5,2.5c0.2,0.4,0.6,0.5,1,0.3c0.4-0.2,0.5-0.6,0.3-1c-0.2-0.4-0.4-1.1-0.4-1.8
	c0-0.8,0.2-1.7,0.6-2.5c0.4-0.8,1.1-1.5,2.1-2.1c1.1-0.6,2.1-0.8,3-0.8c1.1,0,2.1,0.3,3,0.8c0.9,0.5,1.7,1.3,2.3,2.1
	c0.5,0.7,1.2,1.4,2.2,2c0.9,0.5,2,0.9,3.3,0.9c0.9,0,1.8-0.2,2.8-0.5l0,0.1c0,0.4-0.1,0.7-0.1,0.9c0,0.1-0.1,0.2-0.1,0.3
	c0,0,0,0.1,0,0.1l0,0v0c-0.1,0.4,0,0.8,0.4,0.9c0.4,0.1,0.8,0,1-0.4c0-0.1,0.3-0.8,0.3-1.8c0-0.6-0.1-1.3-0.4-1.9
	C77.6,49.2,77,48.6,76.1,48.1z"/>
<path class="st2" d="M57.4,42.6c0.5-0.6,1.2-1.1,2-1.4c0.8-0.3,1.7-0.5,2.6-0.5c0.8,0,1.6,0.2,2.2,0.4c0.4,0.2,0.8,0,1-0.4
	c0.2-0.4,0-0.8-0.4-1c-0.8-0.4-1.8-0.5-2.8-0.5c-1,0-2.1,0.2-3.1,0.6c-1,0.4-1.9,1-2.6,1.8c-0.3,0.3-0.2,0.8,0.1,1
	C56.6,43,57.1,42.9,57.4,42.6z"/>
<path class="st3" d="M68.7,23.2c-18-1.1-33.2,10.2-32.9,28.7l0,1.7L28,67.4c-0.4,0.7-0.5,1.6-0.1,2.4c0.4,0.8,1.1,1.3,1.9,1.5
	l4.8,1.3l1.5,14.7c0,1.4,0.7,2.7,1.7,3.7c1.1,0.9,2.5,1.4,3.9,1.2l3.9,0.3c0.8-0.1,1.5,0.2,2.1,0.7c0.6,0.5,0.9,1.2,0.9,2v11.5h32.7
	c0,0,0-5.6,0-7.8c0-2.2,0.8-7.3,2.2-9.7c5.3-8.5,13.9-13,15.4-30.4C100.3,41.5,89.9,24.5,68.7,23.2z M90.4,53
	c-0.7,1.2-1.9,2-3.2,2.2c-0.4,0.1-0.7,0.4-0.6,0.8c0.1,0.4,0.4,0.7,0.8,0.6c0.3-0.1,0.6-0.1,0.9-0.2c0.3,0.6,0.5,1.3,0.5,2
	c0,0.7-0.2,1.5-0.5,2.1c-0.3,0.7-0.8,1.3-1.5,1.7c-0.8,0.6-1.8,0.8-2.7,0.9c-0.1,0-0.1,0-0.2,0c0-0.1,0-0.2-0.1-0.4v0
	c-0.2-0.8-0.5-1.6-0.9-2.3l-0.1-0.1l-0.1-0.1c-0.6-0.5-1.3-1.3-1.9-2c-0.3-0.4-0.5-0.8-0.7-1.2C80,56.8,80,56.4,80,56.3
	c0-0.1,0-0.1,0-0.2c0,0,0-0.1,0.1-0.1c0.3-0.3,0.3-0.7,0-1c-0.3-0.3-0.7-0.3-1,0c-0.2,0.2-0.3,0.4-0.4,0.6c-0.1,0.2-0.1,0.5-0.1,0.7
	c0,0.5,0.2,1,0.4,1.5c0.3,0.7,0.8,1.4,1.3,2.1c0.5,0.6,1,1.1,1.5,1.6c0.3,0.5,0.6,1.1,0.7,1.7c0,0.3,0.1,0.5,0.1,0.8v0
	c0,0,0,0.1,0,0.1c0,1.1-0.4,2.1-1.1,3c-0.7,0.8-1.6,1.4-2.8,1.6c-0.3,0.1-0.6,0.1-0.9,0.1c-1.6,0-3-0.8-3.8-2c0.5-0.5,0.9-1,1.2-1.6
	v0c0.4-0.8,0.6-1.6,0.6-2.4c0-0.4-0.3-0.7-0.7-0.8c-0.4,0-0.7,0.3-0.8,0.7c0,0.6-0.2,1.2-0.5,1.8l0,0c-0.3,0.6-0.7,1.2-1.2,1.6l0,0
	c-0.8,0.7-1.9,1.1-3,1.1c-0.7,0-1.4-0.1-2-0.5c-1.2-0.6-2.1-1.6-2.4-2.8h0c-0.1-0.5-0.2-0.9-0.2-1.4c0-0.7,0.1-1.4,0.5-2
	c0.2-0.4,0-0.8-0.3-1c-0.4-0.2-0.8,0-1,0.3c-0.4,0.9-0.6,1.8-0.6,2.7c0,0.4,0.1,0.9,0.1,1.3c-0.6,0.3-1.2,0.5-1.9,0.6h0
	c-0.1,0-0.2,0-0.3,0c-1.1,0-2.1-0.4-2.9-1c-0.7-0.6-1.2-1.3-1.5-2.2c0.5-0.5,0.9-1.1,1.3-1.8c0.2-0.4,0-0.8-0.3-1
	c-0.4-0.2-0.8,0-1,0.3c-0.3,0.6-0.7,1.2-1.2,1.6c-0.7,0.6-1.7,1-2.7,1.1h0c-0.1,0-0.2,0-0.3,0c-2.3,0-4.3-1.7-4.6-4l0,0v0
	c0-0.1,0-0.2,0-0.3c0-0.1,0-0.2,0-0.3c0-0.3,0-0.6,0.1-0.9c0.1-0.4-0.2-0.8-0.6-0.9c-0.4-0.1-0.8,0.2-0.9,0.6
	c-0.1,0.4-0.1,0.7-0.1,1.1l0,0c-0.7-0.1-1.3-0.3-1.9-0.6c-0.7-0.4-1.3-1-1.8-1.8c-0.4-0.7-0.6-1.5-0.6-2.2c0-1,0.3-1.9,0.9-2.7
	c0.2,0.3,0.5,0.6,0.7,0.8c0.6,0.6,1.3,1.1,2.1,1.3c0.4,0.1,0.8,0,0.9-0.4c0.1-0.4,0-0.8-0.4-0.9c-0.6-0.2-1.1-0.6-1.6-1v0
	c-0.4-0.4-0.7-0.9-1-1.4c-0.3-0.6-0.4-1.3-0.4-2c0-1.2,0.4-2.4,1.3-3.3c0.8-0.8,1.7-1.2,2.7-1.4h0h0c0.2,0,0.4,0,0.6,0
	c1.2,0,2.4,0.4,3.3,1.3c0.3,0.3,0.8,0.3,1,0c0.3-0.3,0.3-0.7,0-1c-1.2-1.1-2.7-1.7-4.2-1.8c0.2-0.7,0.5-1.4,1-1.9
	c0.6-0.8,1.5-1.3,2.6-1.6c0.4-0.1,0.7-0.1,1.1-0.1c0.6,0,1.2,0.1,1.8,0.3c-0.2,0.5-0.2,1.1-0.2,1.7c0,0.4,0.3,0.7,0.7,0.7
	s0.7-0.3,0.7-0.7c0-0.6,0.1-1.2,0.4-1.8c0.4-0.8,1-1.6,1.7-2.1c0.8-0.5,1.7-0.8,2.6-0.8c1.4,0,2.7,0.6,3.5,1.6
	c0.7,0.8,1.2,1.9,1.2,3.1c0,0.4,0.3,0.7,0.7,0.7c0.4,0,0.7-0.3,0.7-0.7c0-1.4-0.4-2.6-1.2-3.6c0.4-0.5,0.9-1,1.4-1.3
	c0.7-0.4,1.5-0.6,2.4-0.6c1,0,1.9,0.3,2.7,0.8c0.8,0.5,1.4,1.3,1.7,2.2h0c0.2,0.5,0.3,1.1,0.3,1.7c0,0.4,0.3,0.7,0.7,0.7
	c0.4,0,0.7-0.3,0.7-0.7c0-0.6-0.1-1.2-0.3-1.7c0.9-0.8,2-1.3,3.2-1.3c0.6,0,1.2,0.1,1.9,0.4c0.8,0.4,1.5,0.9,2,1.7
	c0.5,0.7,0.8,1.5,0.8,2.4c0,0.1,0,0.2,0,0.3c0,0.6-0.1,1.2-0.4,1.9c-0.2,0.4,0,0.8,0.4,1c0.4,0.2,0.8,0,1-0.4
	c0.3-0.6,0.4-1.3,0.5-1.9c0.7,0.1,1.4,0.3,2,0.6c0.7,0.4,1.3,1,1.7,1.8c0.4,0.7,0.5,1.4,0.5,2.1c0,0.3,0,0.7-0.1,1
	c-0.4-0.2-0.9-0.3-1.3-0.4c-0.4-0.1-0.8,0.2-0.8,0.6c-0.1,0.4,0.2,0.8,0.6,0.8c0.5,0.1,0.9,0.2,1.3,0.4c0.1,0.1,0.2,0.2,0.3,0.3
	c0.1,0,0.2,0.1,0.3,0.1c0.3,0.2,0.5,0.4,0.7,0.6l0,0c0.9,0.9,1.3,2.1,1.3,3.3C91.1,51.4,90.9,52.2,90.4,53z"/>
<path class="st4" d="M82.8,46.5c-0.4-0.3-0.8-0.6-1.2-0.7c-0.4-0.2-0.8-0.3-1.3-0.3c-0.4,0-0.7,0.3-0.7,0.7c0,0.4,0.3,0.7,0.7,0.7
	c0.3,0,0.6,0.1,1,0.3c0.5,0.3,1.1,0.9,1.5,1.6c0.4,0.7,0.7,1.5,0.7,2.4c0,0.9-0.3,1.9-1.1,2.9c-0.3,0.3-0.2,0.8,0.1,1
	c0.3,0.3,0.8,0.2,1-0.1c1-1.2,1.4-2.6,1.4-3.8c0-0.8-0.2-1.5-0.4-2.2C84.1,48,83.5,47.2,82.8,46.5z"/>
<path class="st2" d="M77.8,43.2c-2,0-3.6-0.7-4.7-1.7c-0.6-0.5-1-1-1.3-1.5c-0.3-0.5-0.4-1-0.4-1.4c0-0.4-0.3-0.7-0.7-0.7
	c-0.4,0-0.7,0.3-0.7,0.7c0,0.7,0.2,1.4,0.6,2.1c0.4,0.7,1,1.4,1.7,2c-0.1,0.2-0.3,0.5-0.6,0.7C71,44,70.2,44.7,69.2,45
	c-0.4,0.1-0.6,0.6-0.4,0.9c0.1,0.4,0.6,0.6,0.9,0.4c1.3-0.5,2.3-1.3,2.9-2c0.3-0.3,0.5-0.6,0.7-0.9c1.2,0.7,2.7,1.2,4.4,1.2
	c0.4,0,0.7-0.3,0.7-0.7C78.5,43.5,78.2,43.2,77.8,43.2z"/>
</svg>
