<?xml version="1.0" encoding="utf-8"?>
<!-- Generator: Adobe Illustrator 26.3.1, SVG Export Plug-In . SVG Version: 6.00 Build 0)  -->
<svg version="1.1" id="Ebene_1" xmlns="http://www.w3.org/2000/svg" xmlns:xlink="http://www.w3.org/1999/xlink" x="0px" y="0px"
	 viewBox="0 0 127 126" style="enable-background:new 0 0 127 126;" xml:space="preserve">
<style type="text/css">
	.st0{fill:url(#SVGID_1_);}
	.st1{fill:#EDC391;}
	.st2{fill:#F7DECE;}
	.st3{fill:#312D2D;}
	.st4{fill:#6A4700;}
	.st5{fill:#DBA689;}
	.st6{fill:#444444;}
	.st7{fill:#FFFFFF;}
</style>
<linearGradient id="SVGID_1_" gradientUnits="userSpaceOnUse" x1="63.4" y1="402" x2="63.4" y2="527.6" gradientTransform="matrix(1 0 0 1 0 -402)">
	<stop  offset="0" style="stop-color:#40C47E"/>
	<stop  offset="1" style="stop-color:#40C47E;stop-opacity:0.3"/>
</linearGradient>
<circle class="st0" cx="63.4" cy="62.8" r="62.8"/>
<path class="st1" d="M91.6,69.9H36.5c-5.9,0-10.8,4.7-10.8,10.4c0,5.7,4.9,10.4,10.8,10.4h55.1c5.9,0,10.8-4.7,10.8-10.4
	C102.5,74.6,97.6,69.9,91.6,69.9z"/>
<path class="st2" d="M93.4,43.5C86.3,32.7,77.2,29,63.9,29s-22.4,3.7-29.5,14.5c-5.2,7.9-6.4,20.3-4.8,33.1
	c1.5,12.3,2.8,19.1,10.5,26c6.6,6,15.7,7.3,23.4,7.3h1c7.7,0,16.8-1.3,23.4-7.3c7.6-6.9,8.9-13.7,10.5-26
	C99.9,63.8,98.6,51.4,93.4,43.5z"/>
<path class="st3" d="M74.9,44.6c0.1-0.1,0.2-0.2,0.3-0.3c0.1-0.1,0.1-0.2,0.2-0.3c0.2-0.2,0.3-0.4,0.5-0.6l0.1-0.1
	c0.1-0.2,0.3-0.4,0.4-0.6c0-0.1,0.1-0.1,0.1-0.2c0.1-0.2,0.3-0.4,0.4-0.7c0,0,0-0.1,0.1-0.1c0.3-0.6,0.5-1.2,0.7-1.8v-0.1
	c0.4-1.3,0.6-2.8,0.6-4.4c0-3.3-1.2-5.9-3-7.8c0,0,0,0-0.1-0.1s-0.3-0.3-0.4-0.4L74.7,27c-0.2-0.2-0.3-0.3-0.5-0.5
	c-0.1-0.1-0.3-0.2-0.4-0.4L73.7,26l-0.5-0.4c0,0-0.1,0-0.1-0.1c-0.6-0.4-1.2-0.8-1.8-1.1h-0.1c-0.2-0.1-0.4-0.2-0.6-0.3L70.4,24
	c-0.2-0.1-0.3-0.1-0.5-0.2c-0.1,0-0.1,0-0.2-0.1c-0.2-0.1-0.3-0.1-0.5-0.2L69,23.4c-0.2-0.1-0.3-0.1-0.5-0.1c-0.1,0-0.1,0-0.2-0.1
	c-0.2,0-0.3-0.1-0.5-0.1h-0.2c-0.2,0-0.3-0.1-0.5-0.1c-0.1,0-0.1,0-0.2,0c-0.4-0.1-0.9-0.2-1.3-0.2c-0.1,0-0.1,0-0.2,0
	c-0.2,0-0.3,0-0.5,0c-0.1,0-0.2,0-0.3,0c-0.1,0-0.2,0-0.4,0c-0.1,0-0.2,0-0.3,0c-0.1,0-0.1,0-0.2,0h-0.1c-0.3,0-0.6,0-0.9,0
	c-0.1,0-0.1,0-0.2,0c-0.3,0-0.6,0.1-0.9,0.1c-3.6,0.6-6.6,2.5-8.4,4.4c-1.1,1.1-1.8,2.2-2,3l0,0c2.3-0.6,5.4-1.1,8.8-1.3
	c4.6-0.3,8.4,2.3,8.2,6.3c0,0.5-0.1,0.9-0.2,1.4v0.1c0,0.2-0.1,0.3-0.1,0.5c0,0.1,0,0.1-0.1,0.2c0,0.1-0.1,0.3-0.1,0.4
	c0,0.1-0.1,0.2-0.1,0.2c-0.1,0.1-0.1,0.2-0.2,0.3c0,0.1-0.1,0.2-0.1,0.3c-0.1,0.1-0.1,0.2-0.2,0.3s-0.1,0.2-0.2,0.3
	s-0.1,0.1-0.2,0.2c-0.1,0.1-0.2,0.2-0.3,0.3l-0.1,0.1c-0.1,0.1-0.3,0.3-0.4,0.4c0,0-0.1,0-0.1,0.1c-0.1,0.1-0.3,0.2-0.4,0.3
	l-0.1,0.1C65.2,40.9,65,41,64.9,41c0,0-0.1,0-0.1,0.1c-0.1,0.1-0.3,0.1-0.4,0.2h-0.1c-0.2,0.1-0.3,0.1-0.5,0.2l0,0
	c-0.8,0.2-1.7,0.3-2.5,0.3c-2.6,0-5.3-1-6.9-2.4c-0.1-0.1-0.3-0.2-0.5-0.2h-0.1h-0.1c0,0-0.1,0-0.1,0.1c-0.1,0-0.1,0.1-0.2,0.1l0,0
	c-0.1,0.1-0.1,0.1-0.1,0.2l0,0c0,0.1-0.1,0.2,0,0.3c0.2,2.2,1.6,5,5,7.1c3.2,2,9.8,2,14.6-1.2l0.1-0.1c0.1-0.1,0.3-0.2,0.4-0.3
	c0.1,0,0.1-0.1,0.2-0.1c0.2-0.2,0.4-0.3,0.6-0.5l0.3-0.3C74.7,44.8,74.8,44.7,74.9,44.6z"/>
<path class="st4" d="M74.9,44.6c0.1-0.1,0.2-0.2,0.3-0.3c0.1-0.1,0.1-0.2,0.2-0.3c0.2-0.2,0.3-0.4,0.5-0.6l0.1-0.1
	c0.1-0.2,0.3-0.4,0.4-0.6c0-0.1,0.1-0.1,0.1-0.2c0.1-0.2,0.3-0.4,0.4-0.7c0,0,0-0.1,0.1-0.1c0.3-0.6,0.5-1.2,0.7-1.8v-0.1
	c0.4-1.3,0.6-2.8,0.6-4.4c0-3.3-1.2-5.9-3-7.8c0,0,0,0-0.1-0.1s-0.3-0.3-0.4-0.4L74.7,27c-0.2-0.2-0.3-0.3-0.5-0.5
	c-0.1-0.1-0.3-0.2-0.4-0.4L73.7,26l-0.5-0.4c0,0-0.1,0-0.1-0.1c-0.6-0.4-1.2-0.8-1.8-1.1h-0.1c-0.2-0.1-0.4-0.2-0.6-0.3L70.4,24
	c-0.2-0.1-0.3-0.1-0.5-0.2c-0.1,0-0.1,0-0.2-0.1c-0.2-0.1-0.3-0.1-0.5-0.2L69,23.4c-0.2-0.1-0.3-0.1-0.5-0.1c-0.1,0-0.1,0-0.2-0.1
	c-0.2,0-0.3-0.1-0.5-0.1h-0.2c-0.2,0-0.3-0.1-0.5-0.1c-0.1,0-0.1,0-0.2,0c-0.4-0.1-0.9-0.2-1.3-0.2c-0.1,0-0.1,0-0.2,0
	c-0.2,0-0.3,0-0.5,0c-0.1,0-0.2,0-0.3,0c-0.1,0-0.2,0-0.4,0c-0.1,0-0.2,0-0.3,0c-0.1,0-0.1,0-0.2,0h-0.1c-0.3,0-0.6,0-0.9,0
	c-0.1,0-0.1,0-0.2,0c-0.3,0-0.6,0.1-0.9,0.1c-3.6,0.6-6.6,2.5-8.4,4.4c-1.1,1.1-1.8,2.2-2,3l0,0c2.3-0.6,5.4-1.1,8.8-1.3
	c4.6-0.3,8.4,2.3,8.2,6.3c0,0.5-0.1,0.9-0.2,1.4v0.1c0,0.2-0.1,0.3-0.1,0.5c0,0.1,0,0.1-0.1,0.2c0,0.1-0.1,0.3-0.1,0.4
	c0,0.1-0.1,0.2-0.1,0.2c-0.1,0.1-0.1,0.2-0.2,0.3c0,0.1-0.1,0.2-0.1,0.3c-0.1,0.1-0.1,0.2-0.2,0.3s-0.1,0.2-0.2,0.3
	s-0.1,0.1-0.2,0.2c-0.1,0.1-0.2,0.2-0.3,0.3l-0.1,0.1c-0.1,0.1-0.3,0.3-0.4,0.4c0,0-0.1,0-0.1,0.1c-0.1,0.1-0.3,0.2-0.4,0.3
	l-0.1,0.1C65.2,40.9,65,41,64.9,41c0,0-0.1,0-0.1,0.1c-0.1,0.1-0.3,0.1-0.4,0.2h-0.1c-0.2,0.1-0.3,0.1-0.5,0.2l0,0
	c-0.8,0.2-1.7,0.3-2.5,0.3c-2.6,0-5.3-1-6.9-2.4c-0.1-0.1-0.3-0.2-0.5-0.2h-0.1h-0.1c0,0-0.1,0-0.1,0.1c-0.1,0-0.1,0.1-0.2,0.1l0,0
	c-0.1,0.1-0.1,0.1-0.1,0.2l0,0c0,0.1-0.1,0.2,0,0.3c0.2,2.2,1.6,5,5,7.1c3.2,2,9.8,2,14.6-1.2l0.1-0.1c0.1-0.1,0.3-0.2,0.4-0.3
	c0.1,0,0.1-0.1,0.2-0.1c0.2-0.2,0.4-0.3,0.6-0.5l0.3-0.3C74.7,44.8,74.8,44.7,74.9,44.6z"/>
<path class="st5" d="M67.9,80.3c-0.1,0-0.2-0.1-0.3-0.1h-6.9c-0.1,0-0.2,0-0.3,0.1c-0.6,0.3-1,0.9-0.7,1.6s1.7,2.6,4.4,2.6
	c2.8,0,4.1-1.9,4.4-2.6C68.9,81.2,68.6,80.5,67.9,80.3z"/>
<path class="st3" d="M48.1,81c2.6,0,4.8-2.2,4.8-5s-2.1-5-4.8-5s-4.8,2.2-4.8,5S45.4,81,48.1,81z"/>
<path class="st3" d="M80.3,81c2.6,0,4.8-2.2,4.8-5s-2.1-5-4.8-5c-2.6,0-4.8,2.2-4.8,5S77.7,81,80.3,81z"/>
<path class="st6" d="M71.1,90.6c-2.7,1.6-11.4,1.6-14,0c-1.5-0.9-3.1,0.5-2.4,1.9c0.6,1.4,5.4,4.5,9.5,4.5s8.8-3.2,9.4-4.5
	C74.1,91.1,72.6,89.7,71.1,90.6z"/>
<ellipse class="st7" cx="79.7" cy="75.8" rx="2" ry="2.1"/>
<ellipse class="st7" cx="48.8" cy="75.3" rx="2" ry="2.1"/>
</svg>
